# AST/ASF file generated using VICON BodyLanguage
# -----------------------------------------------
:version 1.10
:name VICON
:units
  mass 1.0
  length 0.45
  angle deg
:documentation
   .ast/.asf automatically generated from VICON data using
   VICON BodyBuilder and BodyLanguage model FoxedUp or BRILLIANT.MOD
:root
   order TX TY TZ RX RY RZ
   axis XYZ
   position 0 0 0  
   orientation 0 0 0 
:bonedata
  begin
     id 1 
     name lhipjoint
     direction 0.610259 -0.730986 0.305356 
     length 2.50941 
     axis 0 0 0  XYZ
  end
  begin
     id 2 
     name lfemur
     direction 0.34202 -0.939693 0  
     length 7.48822  
     axis 0 0 20  XYZ
    dof rx ry rz
    limits (-160.0 20.0)
           (-70.0 70.0)
           (-60.0 70.0)
  end
  begin
     id 3 
     name ltibia
     direction 0.34202 -0.939693 0   
     length 7.60141   
     axis 0 0 20   XYZ
    dof rx
    limits (-10.0 170.0)
  end
  begin
     id 4 
     name lfoot
     direction 0.0673488 -0.185039 0.980421   
     length 2.04049   
     axis -90 7.62852e-016 20   XYZ
    dof rx rz
    limits (-45.0 90.0)
           (-70.0 20.0)
  end
  begin
     id 5 
     name ltoes
     direction 1.5356e-011 -4.21729e-011 1   
     length 1.02897   
     axis -90 7.62852e-016 20   XYZ
    dof rx
    limits (-90.0 20.0)
  end
  begin
     id 6 
     name rhipjoint
     direction -0.57612 -0.754205 0.315056   
     length 2.43216  
     axis 0 0 0  XYZ 
  end
  begin
     id 7 
     name rfemur
     direction -0.34202 -0.939693 0   
     length 7.42799   
     axis 0 0 -20   XYZ
    dof rx ry rz
    limits (-160.0 20.0)
           (-70.0 70.0)
           (-70.0 60.0)
  end
  begin
     id 8 
     name rtibia
     direction -0.34202 -0.939693 0   
     length 7.69484   
     axis 0 0 -20   XYZ
    dof rx
    limits (-10.0 170.0)
 end
 begin
     id 9 
     name rfoot
     direction -0.111837 -0.30727 0.945028   
     length 2.15769  
     axis -90 -7.62852e-016 -20   XYZ
    dof rx rz
    limits (-45.0 90.0)
           (-20.0 70.0)
  end
  begin
     id 10 
     name rtoes
     direction -1.53539e-011 -4.21878e-011 1   
     length 1.07391   
     axis -90 -7.62852e-016 -20   XYZ
    dof rx
    limits (-90.0 20.0)
  end
  begin
     id 11 
     name lowerback
     direction 0.00552624 0.990109 -0.140195   
     length 2.12403   
     axis 0 0 0   XYZ
    dof rx ry rz
    limits (-20.0 45.0)
           (-30.0 30.0)
           (-30.0 30.0)
  end
  begin
     id 12 
     name upperback
     direction 0.00361898 0.999976 -0.00584723   
     length 2.13232   
     axis 0 0 0   XYZ
    dof rx ry rz
    limits (-20.0 45.0)
           (-30.0 30.0)
           (-30.0 30.0)
  end
  begin
     id 13 
     name thorax
     direction -0.000331275 0.998253 0.0590847   
     length 2.17688   
     axis 0 0 0   XYZ
    dof rx ry rz
    limits (-20.0 45.0)
           (-30.0 30.0)
           (-30.0 30.0)
  end
  begin
     id 14 
     name lowerneck
     direction -0.0561561 0.979832 0.19177   
     length 1.64159   
     axis 0 0 0   XYZ
    dof rx ry rz
    limits (-20.0 45.0)
           (-30.0 30.0)
           (-30.0 30.0)
  end
  begin
     id 15 
     name upperneck
     direction 0.0827153 0.979385 -0.184293   
     length 1.68939   
     axis 0 0 0   XYZ
    dof rx ry rz
    limits (-20.0 45.0)
           (-30.0 30.0)
           (-30.0 30.0)
  end
  begin
     id 16
     name head
     direction 0.0278583 0.995936 -0.0856488  
     length 1.70207  
     axis 0 0 0   XYZ
    dof rx ry rz
    limits (-20.0 45.0)
           (-30.0 30.0)
           (-30.0 30.0)
  end
  begin
     id 17 
     name lclavicle
     direction 0.950993 0.301131 -0.0702275  
     length 3.41652  
     axis 0 0 0   XYZ
    dof ry rz
    limits (-20.0 10.0)
           (0.0 20.0)
  end
  begin
     id 18 
     name lhumerus
     direction 1 -4.48981e-011 -3.9662e-029   
     length 5.32955   
     axis 180 -30 -90   XYZ
    dof rx ry rz
    limits (-60.0 90.0)
           (-90.0 90.0)
           (-90.0 90.0)
  end
  begin
     id 19
     name lradius
     direction 1 -4.48925e-011 -9.0549e-027   
     length 3.69232   
     axis 180 -30 -90   XYZ
    dof rx
    limits (-10.0 170.0)
  end
  begin
     id 20
     name lwrist
     direction 1 -4.49007e-011 -1.49005e-026   
     length 1.84616   
     axis 9.0955e-015 90 90   XYZ
    dof ry
    limits (-180.0 0.0)
 end
  begin
     id 21 
     name lhand
     direction 1 -4.49016e-011 -2.98023e-026   
     length 0.536598   
     axis 1.90115e-014 90 90   XYZ
    dof rx rz
    limits (-90.0 90.0)
           (-45.0 45.0)
  end
  begin
     id 22 
     name lfingers
     direction 1 -4.48924e-011 -5.9578e-026   
     length 0.432619   
     axis 3.80223e-014 90 90   XYZ
    dof rx
    limits (0.0 90.0)
  end
  begin
     id 23
     name lthumb
     direction 0.707107 -6.34947e-011 0.707107   
     length 0.621157   
     axis -90 45 -3.84942e-014   XYZ
    dof rx rz
    limits (-45.0 45.0)
           (-45.0 45.0)
  end
  begin
     id 24 
     name rclavicle
     direction -0.955495 0.276497 -0.102848   
     length 3.36357  
     axis 0 0 0   XYZ 
    dof ry rz
    limits (-10.0 20.0)
           (-20.0 0.0)
  end
  begin
     id 25 
     name rhumerus
     direction -1 -4.48961e-011 3.30983e-027  
     length 5.23431   
     axis 180 30 90   XYZ
    dof rx ry rz
    limits (-90.0 60.0)
           (-90.0 90.0)
           (-90.0 90.0)
  end
  begin
     id 26 
     name rradius
     direction -1 -4.48965e-011 -6.63263e-027   
     length 3.55301   
     axis 180 30 90   XYZ
    dof rx
    limits (-10.0 170.0)
  end
  begin
     id 27 
     name rwrist
     direction -1 -4.48942e-011 -1.48958e-026   
     length 1.77651   
     axis 9.0955e-015 -90 -90   XYZ
    dof ry
    limits (-180.0 0.0)
  end
  begin
     id 28
     name rhand
     direction -1 -4.48977e-011 -2.97966e-026   
     length 0.772522   
     axis 1.90115e-014 -90 -90   XYZ
    dof rx rz
    limits (-90.0 90.0)
           (-45.0 45.0)
  end
  begin
     id 29
     name rfingers
     direction -1 -4.49135e-011 -5.96389e-026   
     length 0.622827   
     axis 3.80223e-014 -90 -90   XYZ
    dof rx
    limits (0.0 90.0)
  end
  begin
     id 30
     name rthumb
     direction -0.707107 -6.34969e-011 0.707107   
     length 0.894259   
     axis -90 -45 3.84942e-014   XYZ
    dof rx rz
    limits (-45.0 45.0)
           (-45.0 45.0)
  end
:hierarchy
  begin
    root lhipjoint rhipjoint lowerback
    lhipjoint lfemur
    lfemur ltibia
    ltibia lfoot
    lfoot ltoes
    rhipjoint rfemur
    rfemur rtibia
    rtibia rfoot
    rfoot rtoes
    lowerback upperback
    upperback thorax
    thorax lowerneck lclavicle rclavicle
    lowerneck upperneck
    upperneck head
    lclavicle lhumerus
    lhumerus lradius
    lradius lwrist
    lwrist lhand lthumb
    lhand lfingers
    rclavicle rhumerus
    rhumerus rradius
    rradius rwrist
    rwrist rhand rthumb
    rhand rfingers
  end

#!OML:ASF F:\VICON\USERDATA\INSTALL\rory3\rory3.ASF
:FULLY-SPECIFIED
:DEGREES
1
root 5.7994 17.8397 -8.45224 -2.34705 -40.5141 2.56199
lowerback 8.70479 0.310523 1.15618
upperback -0.541836 0.558147 0.492955
thorax -5.44609 0.247671 -0.21076
lowerneck -21.4279 -5.70049 -13.527
upperneck 28.4859 -6.25483 8.50279
head 14.0417 -3.10956 4.55674
rclavicle -1.39895e-014 -3.18055e-015
rhumerus -40.2677 -15.1175 -77.3706
rradius 31.6112
rwrist 5.56644
rhand -12.5179 8.01747
rfingers 7.12502
rthumb 13.5579 -21.5211
lclavicle -1.39895e-014 -3.18055e-015
lhumerus -32.5869 3.51403 86.5615
lradius 27.2502
lwrist -3.60951
lhand -17.5958 26.7898
lfingers 7.12502
lthumb 8.66042 56.5922
rfemur -5.91072 -3.0117 24.5231
rtibia 28.0016
rfoot -18.9182 2.13576
rtoes 11.2473
lfemur -9.53974 2.3654 -19.0208
ltibia 37.725
lfoot -12.1775 0.751326
ltoes -15.4094
2
root 5.79077 17.838 -8.45397 -2.5053 -40.5619 2.56257
lowerback 8.94129 0.342605 1.10877
upperback -0.477947 0.600317 0.527972
thorax -5.51312 0.269891 -0.154686
lowerneck -21.6976 -5.69891 -13.3141
upperneck 28.7401 -6.18043 8.12348
head 14.1756 -3.10416 4.38335
rclavicle -7.35752e-014 -3.57812e-015
rhumerus -40.2553 -15.184 -77.2247
rradius 31.4792
rwrist 5.92674
rhand -12.3588 8.34238
rfingers 7.12502
rthumb 13.7112 -21.1859
lclavicle -7.35752e-014 -3.57812e-015
lhumerus -32.573 3.43086 86.6484
lradius 27.3732
lwrist -3.48179
lhand -17.5413 26.7599
lfingers 7.12502
lthumb 8.71301 56.5601
rfemur -5.65381 -3.09356 24.5304
rtibia 27.869
rfoot -18.9074 2.22307
rtoes 11.1127
lfemur -9.81417 2.44508 -18.9588
ltibia 38.4228
lfoot -12.0268 0.777263
ltoes -15.6347
3
root 5.78242 17.8365 -8.45381 -2.50899 -40.7025 2.44041
lowerback 9.06718 0.395735 1.19741
upperback -0.431852 0.683752 0.565805
thorax -5.53452 0.308781 -0.177242
lowerneck -21.992 -5.67729 -12.9234
upperneck 29.1485 -6.07415 7.51537
head 14.3634 -3.10042 4.09391
rclavicle -1.63997e-014 -1.55052e-014
rhumerus -40.2349 -15.158 -77.1602
rradius 31.3829
rwrist 6.05624
rhand -12.3917 8.48426
rfingers 7.12502
rthumb 13.6795 -21.0462
lclavicle -1.63997e-014 -1.55052e-014
lhumerus -32.5817 3.35039 86.6759
lradius 27.4512
lwrist -3.36766
lhand -17.5915 26.7184
lfingers 7.12502
lthumb 8.66459 56.5206
rfemur -5.4369 -3.06271 24.6366
rtibia 27.6727
rfoot -18.8776 2.35444
rtoes 11.2943
lfemur -10.1702 2.65753 -18.7872
ltibia 39.0925
lfoot -11.9179 0.736182
ltoes -17.1925
4
root 5.77179 17.8376 -8.4514 -2.50174 -40.9125 2.28996
lowerback 9.12438 0.481897 1.31381
upperback -0.35487 0.811427 0.581871
thorax -5.48328 0.368897 -0.243579
lowerneck -21.9042 -5.70038 -12.9571
upperneck 29.184 -6.13342 7.57713
head 14.372 -3.12425 4.1157
rclavicle 6.55244e-014 3.97569e-016
rhumerus -40.2157 -15.1593 -77.1784
rradius 31.3616
rwrist 5.95467
rhand -12.7566 8.18783
rfingers 7.12502
rthumb 13.3278 -21.366
lclavicle 6.55244e-014 3.97569e-016
lhumerus -32.545 3.36431 86.6434
lradius 27.4769
lwrist -3.4336
lhand -17.5936 26.6521
lfingers 7.12502
lthumb 8.66249 56.4544
rfemur -5.19574 -2.93378 24.784
rtibia 27.4706
rfoot -18.8366 2.45551
rtoes 11.3243
lfemur -10.5118 2.94427 -18.5939
ltibia 39.742
lfoot -11.8609 0.515579
ltoes -17.9221
5
root 5.7628 17.836 -8.44854 -2.57713 -41.0697 2.1388
lowerback 9.32487 0.554984 1.43459
upperback -0.299235 0.924106 0.576088
thorax -5.53465 0.420434 -0.334955
lowerneck -21.5261 -5.70655 -13.2957
upperneck 28.9992 -6.26738 8.18033
head 14.2655 -3.14319 4.39745
rclavicle 1.0138e-014 1.82882e-014
rhumerus -40.2618 -15.3067 -77.1511
rradius 31.285
rwrist 5.90945
rhand -13.1513 7.92341
rfingers 7.12502
rthumb 12.9473 -21.6549
lclavicle 1.0138e-014 1.82882e-014
lhumerus -32.6044 3.21389 86.6357
lradius 27.6024
lwrist -3.39224
lhand -17.7879 26.6877
lfingers 7.12502
lthumb 8.47505 56.4976
rfemur -4.85458 -2.89696 24.9343
rtibia 27.2403
rfoot -18.8042 2.45951
rtoes 11.0387
lfemur -10.7624 3.10148 -18.4159
ltibia 40.3444
lfoot -11.7957 0.186481
ltoes -17.6319
6
root 5.75456 17.8351 -8.44485 -2.62958 -41.2041 1.95766
lowerback 9.54246 0.610932 1.61361
upperback -0.252599 1.02083 0.559374
thorax -5.60366 0.462045 -0.469081
lowerneck -21.2549 -5.68314 -13.4495
upperneck 28.8591 -6.33075 8.54066
head 14.1754 -3.143 4.55974
rclavicle -1.26974e-014 2.78299e-015
rhumerus -40.3131 -15.523 -77.1157
rradius 31.1717
rwrist 5.91691
rhand -13.2011 7.92405
rfingers 7.12502
rthumb 12.8994 -21.6573
lclavicle -1.26974e-014 2.78299e-015
lhumerus -32.6656 2.96483 86.6344
lradius 27.7505
lwrist -3.2639
lhand -17.9819 26.8055
lfingers 7.12502
lthumb 8.28784 56.6229
rfemur -4.50059 -2.7955 25.0987
rtibia 26.9982
rfoot -18.72 2.4671
rtoes 11.0793
lfemur -11.037 3.24447 -18.2127
ltibia 40.8922
lfoot -11.5825 -0.200659
ltoes -17.3289
7
root 5.74404 17.841 -8.43871 -2.666 -41.357 1.83722
lowerback 9.65114 0.67511 1.749
upperback -0.19725 1.12262 0.560368
thorax -5.60239 0.508311 -0.559744
lowerneck -21.1725 -5.68134 -13.4449
upperneck 28.841 -6.33417 8.52045
head 14.1493 -3.14816 4.5496
rclavicle -5.10628e-014 -6.75868e-015
rhumerus -40.311 -15.7142 -77.0621
rradius 31.0419
rwrist 6.07736
rhand -13.1483 8.017
rfingers 7.12502
rthumb 12.9502 -21.5611
lclavicle -5.10628e-014 -6.75868e-015
lhumerus -32.6831 2.88586 86.6242
lradius 27.8226
lwrist -3.26149
lhand -17.6833 26.9526
lfingers 7.12502
lthumb 8.57597 56.7585
rfemur -4.2393 -2.72602 25.1907
rtibia 26.8427
rfoot -18.6933 2.6122
rtoes 11.5945
lfemur -11.3525 3.38916 -18.0732
ltibia 41.3614
lfoot -11.3103 -0.61612
ltoes -17.062
8
root 5.73402 17.8457 -8.43487 -2.73829 -41.4506 1.86522
lowerback 9.73374 0.699898 1.73517
upperback -0.177809 1.15545 0.561039
thorax -5.62811 0.524598 -0.557049
lowerneck -21.0966 -5.65498 -13.4092
upperneck 28.8901 -6.27923 8.38773
head 14.1397 -3.14134 4.50057
rclavicle 6.16978e-014 -2.0276e-014
rhumerus -40.3039 -15.7967 -77.0072
rradius 30.9291
rwrist 6.24914
rhand -13.1143 8.03659
rfingers 7.12502
rthumb 12.983 -21.5394
lclavicle 6.16978e-014 -2.0276e-014
lhumerus -32.7392 2.78585 86.6699
lradius 27.8664
lwrist -3.1424
lhand -17.5214 27.1221
lfingers 7.12502
lthumb 8.73223 56.9215
rfemur -4.1065 -2.7392 25.1658
rtibia 26.8032
rfoot -18.7259 2.75517
rtoes 11.9111
lfemur -11.7243 3.4535 -18.073
ltibia 41.7452
lfoot -10.9837 -0.973787
ltoes -17.1859
9
root 5.72694 17.8426 -8.4359 -2.89187 -41.4283 2.04579
lowerback 9.88638 0.681404 1.59287
upperback -0.198203 1.11716 0.542296
thorax -5.73871 0.508434 -0.49354
lowerneck -20.9742 -5.59344 -13.4314
upperneck 29.0103 -6.18914 8.32755
head 14.1515 -3.11957 4.50161
rclavicle 5.99584e-014 -4.77083e-015
rhumerus -40.3438 -15.6248 -77.0283
rradius 30.9034
rwrist 6.14325
rhand -13.1839 7.94869
rfingers 7.12502
rthumb 12.9159 -21.6316
lclavicle 5.99584e-014 -4.77083e-015
lhumerus -32.877 2.75077 86.7268
lradius 27.9697
lwrist -2.98083
lhand -17.6955 27.3008
lfingers 7.12502
lthumb 8.56415 57.1071
rfemur -4.03939 -2.74189 25.0381
rtibia 26.8158
rfoot -18.7961 2.71085
rtoes 11.8566
lfemur -12.1646 3.53067 -18.1865
ltibia 42.0357
lfoot -10.4559 -1.42806
ltoes -18.6314
10
root 5.7197 17.8314 -8.43316 -2.98576 -41.4883 2.07706
lowerback 10.0294 0.695427 1.57438
upperback -0.181612 1.1355 0.530615
thorax -5.80167 0.517177 -0.500049
lowerneck -21.0167 -5.5339 -13.3271
upperneck 29.2516 -6.12125 8.23362
head 14.2481 -3.09686 4.46607
rclavicle 5.67779e-014 -7.95139e-015
rhumerus -40.3741 -15.5151 -77.0803
rradius 30.9227
rwrist 5.96087
rhand -13.2064 7.7418
rfingers 7.12502
rthumb 12.8942 -21.8399
lclavicle 5.67779e-014 -7.95139e-015
lhumerus -32.9486 2.6651 86.7464
lradius 28.0709
lwrist -2.79284
lhand -17.7374 27.6017
lfingers 7.12502
lthumb 8.52373 57.4096
rfemur -3.922 -2.66616 25.0328
rtibia 26.8125
rfoot -18.8156 2.67746
rtoes 11.8797
lfemur -12.552 3.62408 -18.1751
ltibia 42.2681
lfoot -9.78055 -1.7644
ltoes -19.7405
11
root 5.70997 17.8284 -8.42387 -3.00082 -41.6327 1.9268
lowerback 10.1171 0.726891 1.67324
upperback -0.112696 1.19298 0.597093
thorax -5.77697 0.543689 -0.495441
lowerneck -21.1713 -5.47789 -13.2436
upperneck 29.5435 -6.00955 8.06353
head 14.3844 -3.0665 4.41159
rclavicle -7.15376e-014 8.34896e-015
rhumerus -40.2897 -15.5612 -76.9877
rradius 30.787
rwrist 6.02235
rhand -13.0373 7.74947
rfingers 7.12502
rthumb 13.0573 -21.8218
lclavicle -7.15376e-014 8.34896e-015
lhumerus -32.9583 2.69093 86.7835
lradius 28.1399
lwrist -2.68392
lhand -17.6404 27.5912
lfingers 7.12502
lthumb 8.61741 57.3953
rfemur -3.73867 -2.67038 25.1503
rtibia 26.7642
rfoot -18.8647 2.75522
rtoes 11.5925
lfemur -12.808 3.65804 -18.0398
ltibia 42.4316
lfoot -9.2845 -1.90056
ltoes -19.8874
12
root 5.69724 17.8334 -8.41273 -2.98151 -41.7906 1.77669
lowerback 10.1341 0.74841 1.74083
upperback -0.0635 1.23422 0.694936
thorax -5.73481 0.56375 -0.437126
lowerneck -21.0718 -5.4183 -13.3847
upperneck 29.686 -5.8888 8.04594
head 14.4145 -3.03997 4.45755
rclavicle -3.8763e-015 -1.90833e-014
rhumerus -40.2389 -15.6146 -76.8288
rradius 30.6266
rwrist 6.27009
rhand -12.7382 8.03167
rfingers 7.12502
rthumb 13.3455 -21.521
lclavicle -3.8763e-015 -1.90833e-014
lhumerus -33.0087 2.96684 86.7626
lradius 28.1536
lwrist -2.82208
lhand -17.7036 27.4606
lfingers 7.12502
lthumb 8.55636 57.2672
rfemur -3.53585 -2.78009 25.2456
rtibia 26.6345
rfoot -18.8951 2.95231
rtoes 11.4537
lfemur -13.0516 3.7151 -17.9136
ltibia 42.5636
lfoot -9.17069 -2.13035
ltoes -20.325
13
root 5.68163 17.8399 -8.40259 -3.06308 -41.9693 1.80748
lowerback 10.1389 0.792124 1.67707
upperback -0.038221 1.2862 0.728153
thorax -5.7121 0.59181 -0.374092
lowerneck -20.9442 -5.35418 -13.4737
upperneck 29.8969 -5.77547 7.98268
head 14.4659 -3.01987 4.47643
rclavicle -5.56597e-015 -6.36111e-015
rhumerus -40.2313 -15.5609 -76.7884
rradius 30.526
rwrist 6.33776
rhand -12.6189 8.22691
rfingers 7.12502
rthumb 13.4605 -21.3181
lclavicle -5.56597e-015 -6.36111e-015
lhumerus -33.0741 3.08201 86.7669
lradius 28.1187
lwrist -2.86644
lhand -17.8794 27.4798
lfingers 7.12502
lthumb 8.38676 57.2933
rfemur -3.30577 -2.77945 25.2141
rtibia 26.4338
rfoot -18.9211 3.12639
rtoes 11.9469
lfemur -13.3002 3.68159 -17.9417
ltibia 42.6758
lfoot -9.23631 -2.23067
ltoes -21.2336
14
root 5.66761 17.8417 -8.39342 -3.18169 -42.0953 1.90359
lowerback 10.2007 0.853938 1.62621
upperback -0.0281626 1.36034 0.670997
thorax -5.73475 0.628721 -0.417201
lowerneck -20.9134 -5.29281 -13.2497
upperneck 30.1298 -5.70282 7.72704
head 14.534 -3.00513 4.3523
rclavicle 5.86166e-014 1.98785e-015
rhumerus -40.3129 -15.6133 -76.8227
rradius 30.5304
rwrist 6.3104
rhand -12.6577 8.26309
rfingers 7.12502
rthumb 13.4231 -21.2844
lclavicle 5.86166e-014 1.98785e-015
lhumerus -33.1544 2.92202 86.7538
lradius 28.0897
lwrist -2.90052
lhand -18.0145 27.6444
lfingers 7.12502
lthumb 8.25631 57.4631
rfemur -3.08008 -2.72297 25.1413
rtibia 26.2249
rfoot -18.9871 3.21995
rtoes 13.0076
lfemur -13.6217 3.65933 -18.0328
ltibia 42.7781
lfoot -9.31489 -2.19971
ltoes -21.9244
15
root 5.655 17.8411 -8.3817 -3.2984 -42.1571 2.00073
lowerback 10.2533 0.889507 1.62035
upperback -0.0123417 1.4038 0.601959
thorax -5.74527 0.649221 -0.493359
lowerneck -20.8188 -5.2406 -13.0286
upperneck 30.233 -5.65478 7.50676
head 14.5356 -2.99386 4.23436
rclavicle -2.00027e-014 -3.18055e-015
rhumerus -40.4184 -15.7889 -76.7891
rradius 30.5505
rwrist 6.31347
rhand -12.6324 8.29738
rfingers 7.12502
rthumb 13.4475 -21.2485
lclavicle -2.00027e-014 -3.18055e-015
lhumerus -33.2568 2.84239 86.6878
lradius 28.1089
lwrist -3.02113
lhand -17.9825 27.7888
lfingers 7.12502
lthumb 8.28718 57.6062
rfemur -2.87702 -2.84024 25.0464
rtibia 26.0611
rfoot -19.1555 3.29816
rtoes 13.7916
lfemur -13.985 3.66616 -18.1113
ltibia 42.8418
lfoot -9.24568 -2.35905
ltoes -21.535
